<svg id="Слой_1" data-name="Слой 1" xmlns="http://www.w3.org/2000/svg" viewBox="0 0 18 18"><defs><style>.cls-1{fill:#063;}.cls-2{fill:#95c11f;}</style></defs><path class="cls-1" d="M1.4,13.6l1.2.8.6.4.3.2H3.4l2.2,1.9,1.3,1a2.6,2.6,0,0,0,3.1-.4,12.5,12.5,0,0,0,1.5-2.8,46.7,46.7,0,0,1,2.7-4.9c.5-.7,1-1.5,1.6-2.2l.4-.5c.3-.5-.2.2.1-.2l1-1.3a2.4,2.4,0,0,0,0-3.5,2.4,2.4,0,0,0-3.5,0A45.1,45.1,0,0,0,9.4,8.2c-.7,1-1.2,2-1.8,3l-.8,1.7a11.1,11.1,0,0,1-.7,1.6l1.5-1.2H7.4l2,.3h.1l-.4-.4-.7-.6L7.1,11.6,3.9,9.3a2.4,2.4,0,0,0-3.4.9,2.5,2.5,0,0,0,.9,3.4Z" transform="translate(-0.2 -1.4)"/><path class="cls-2" d="M1.5,14.7l1.2.9.6.4.3.2H3.5L5.7,18a5.3,5.3,0,0,0,1.2,1,2.7,2.7,0,0,0,3.2-.4,12.5,12.5,0,0,0,1.5-2.8A37.2,37.2,0,0,1,14.3,11l1.6-2.3.4-.5c.3-.5-.2.2.1-.2l1-1.2a2.5,2.5,0,0,0,0-3.6,2.6,2.6,0,0,0-3.5,0A68.5,68.5,0,0,0,9.4,9.3L7.7,12.4,6.9,14a11.1,11.1,0,0,1-.7,1.6l1.5-1.2H7.5l2,.2h.1l-.4-.3-.7-.7L7.2,12.7,4,10.4a2.5,2.5,0,1,0-2.5,4.3Z" transform="translate(-0.2 -1.4)"/></svg>