<svg id="Слой_1" data-name="Слой 1" xmlns="http://www.w3.org/2000/svg" viewBox="0 0 18.7 18.6"><defs><style>.cls-1{fill:#e94e1b;}.cls-2{fill:#be1622;}</style></defs><path class="cls-1" d="M2.7,6.3c2.4,1.4,4.8,2.8,7.1,4.3l.7.6c.1,0,.4.3.2.2l.3.2,1.5,1.2a25.2,25.2,0,0,1,2.7,3,2.6,2.6,0,0,0,3.6,0,2.7,2.7,0,0,0,0-3.6C15.2,7.7,10.1,4.9,5.2,2A2.5,2.5,0,1,0,2.7,6.3Z" transform="translate(-0.7 -0.5)"/><path class="cls-1" d="M15.7.8A34,34,0,0,0,8.8,7a28.5,28.5,0,0,0-3.1,3.8,9.2,9.2,0,0,0-1.9,4.8,2.6,2.6,0,0,0,2.5,2.5,2.6,2.6,0,0,0,2.5-2.5c0,.3,0,.2.1-.1a.6.6,0,0,1,.1-.4c0-.2.1-.3.1-.5s-.1.3.1,0l1-1.6c.4-.5-.2.2,0-.1l.3-.3.7-.8,1.4-1.6,2.8-2.8a16.6,16.6,0,0,1,1.4-1.3c.3-.3-.3.2.1,0l.4-.3.9-.6a2.7,2.7,0,0,0,.9-3.5A2.6,2.6,0,0,0,15.7.8Z" transform="translate(-0.7 -0.5)"/><path class="cls-2" d="M2,7.3c2.3,1.4,4.8,2.8,7.1,4.3l.7.6c.1,0,.4.3.2.2l.3.2,1.5,1.2a25.2,25.2,0,0,1,2.7,3,2.6,2.6,0,0,0,3.6,0,2.7,2.7,0,0,0,0-3.6C14.5,8.7,9.4,5.9,4.5,3A2.5,2.5,0,0,0,2,7.3Z" transform="translate(-0.7 -0.5)"/><path class="cls-2" d="M15,1.8A34,34,0,0,0,8.1,8a40.1,40.1,0,0,0-3.2,3.8,10,10,0,0,0-1.8,4.8,2.6,2.6,0,0,0,2.5,2.5,2.5,2.5,0,0,0,2.5-2.5c0,.3,0,.2.1-.1a.6.6,0,0,1,.1-.4c0-.2.1-.3.1-.5h0a8.6,8.6,0,0,0,1-1.6h.1l.3-.3.7-.8,1.4-1.6,2.8-2.8a8.6,8.6,0,0,1,1.4-1.3c.3-.3-.3.2,0,0l.5-.3.9-.6a2.7,2.7,0,0,0,.9-3.5A2.6,2.6,0,0,0,15,1.8Z" transform="translate(-0.7 -0.5)"/></svg>